<?xml version="1.0" encoding="UTF-8" standalone="no"?>
<svg viewBox="0 0 500 577.54858" xmlns="http://www.w3.org/2000/svg">
<defs>
<clipPath id="clipPath3724">
<path d="m378.41071,867.13935c-38.53348-.25148-86.21977-7.15887-100.17392-18.03214 2.81234-23.69357 4.42082-43.35276 30.86166-54.16508l39.71542-19.19461c6.5177-21.52137-2.65328-40.02567-7.71542-59.32016-.51167,1.45345-.9066,2.99029-3.03557,3.28854-6.72078-3.95925-11.46877-28.48459-3.92095-28.45849-.86598-6.86884-1.25855-18.98488 0-25.80237 3.21548-17.98113 19.5054-31.69558 44.26878-32.12648v233.81079z"/>
<path d="m378.38094,867.13935c38.53348-.25148 86.21977-7.15887 100.17392-18.03214-2.81234-23.69357-4.42082-43.35276-30.86166-54.16508l-39.71542-19.19461c-6.5177-21.52137 2.65328-40.02567 7.71542-59.32016 .51167,1.45345.9066,2.99029 3.03557,3.28854 6.72078-3.95925 11.46877-28.48459 3.92095-28.45849 .86598-6.86884 1.25855-18.98488 0-25.80237-3.21548-17.98113-19.5054-31.69558-44.26878-32.12648v233.81079z"/>
</clipPath>
<filter id="filter3782">
<feGaussianBlur stdDeviation="3.256"/>
</filter>
</defs>
<g transform="translate(-112.02667,-165.24758)">
<g filter="url(#filter3782)" transform="matrix(2.31539,0,0,2.31539,-514.10576,-1283.0594)">
<path d="m378.41071,867.13935c-38.53348-.25148-86.21977-7.15887-100.17392-18.03214 2.81234-23.69357 4.42082-43.35276 30.86166-54.16508l39.71542-19.19461c6.5177-21.52137-2.65328-40.02567-7.71542-59.32016-.51167,1.45345-.9066,2.99029-3.03557,3.28854-4.31762-.0383-11.46877-28.48459-3.92095-28.45849-.86598-6.86884-1.25855-18.98488 0-25.80237 3.21548-17.98113 19.5054-31.69558 44.26878-32.12648v233.81079z" fill="#37c837"/>
<path d="m378.38094,867.13935c38.53348-.25148 86.21977-7.15887 100.17392-18.03214-2.81234-23.69357-4.42082-43.35276-30.86166-54.16508l-39.71542-19.19461c-6.5177-21.52137 2.65328-40.02567 7.71542-59.32016 .51167,1.45345.9066,2.99029 3.03557,3.28854 5.21903,1.58567 11.46877-28.48459 3.92095-28.45849 .86598-6.86884 1.25855-18.98488 0-25.80237-3.21548-17.98113-19.5054-31.69558-44.26878-32.12648v233.81079z" fill="#37c837"/>
</g>
<path clip-path="url(#clipPath3724)" d="m378.07904,631.95112v234.82213" fill="#37c837" stroke="#37c837" stroke-width="2.84306" transform="matrix(2.31539,0,0,2.31539,-514.10576,-1283.0594)"/>
<g transform="matrix(2.31539,0,0,2.31539,-514.10576,-1283.0594)">
<path d="m378.41071,867.13935c-38.53348-.25148-86.21977-7.15887-100.17392-18.03214 2.81234-23.69357 4.42082-43.35276 30.86166-54.16508l39.71542-19.19461c6.5177-21.52137-2.65328-40.02567-7.71542-59.32016-.51167,1.45345-.9066,2.99029-3.03557,3.28854-4.31762-.0383-11.46877-28.48459-3.92095-28.45849-.86598-6.86884-1.25855-18.98488 0-25.80237 3.21548-17.98113 19.5054-31.69558 44.26878-32.12648v233.81079z" fill="#37c837"/>
<path d="m378.38094,867.13935c38.53348-.25148 86.21977-7.15887 100.17392-18.03214-2.81234-23.69357-4.42082-43.35276-30.86166-54.16508l-39.71542-19.19461c-6.5177-21.52137 2.65328-40.02567 7.71542-59.32016 .51167,1.45345.9066,2.99029 3.03557,3.28854 5.21903,1.58567 11.46877-28.48459 3.92095-28.45849 .86598-6.86884 1.25855-18.98488 0-25.80237-3.21548-17.98113-19.5054-31.69558-44.26878-32.12648v233.81079z" fill="#37c837"/>
</g>
<path d="m365.43083,368.55432c-.2616-10.76576.36896-23.54193 10.10412-30.35518 15.28835-11.50148 34.59208-19.67036 43.77237-37.53127 9.71134-20.54282 3.13981-48.04393-16.53125-60.28929-19.13683-12.17386-44.02438-13.45502-65.29634-6.60348-16.65601,5.27004-31.34961,20.16316-31.45346,38.39465-1.13412,11.86872 7.98144,24.67995 20.59846,24.22942 10.60959.68673 19.79329-8.878 19.09984-19.403 .98556-8.87816-6.80667-14.38281-10.73775-21.1789-3.05717-9.84287 8.74656-15.72254 17.00065-15.18769 12.34951-1.11331 21.96991,9.66533 24.31019,20.96304 4.9076,19.65106 1.57008,40.87914-8.23365,58.5263-6.32948,12.18485-13.84043,24.99985-12.2589,39.30228-.17204,5.40613-.40035,11.0378 6.36668,9.13312h3.25904zm-4.24442,22.73794c-15.9866-.38667-29.53472,16.49858-24.9782,32.01357 3.24168,15.44205 22.24887,23.82057 36.09932,16.74282 14.67369-6.39193 19.00838-27.33587 8.49172-39.25974-4.71801-5.84897-12.06144-9.54425-19.61284-9.49665z" fill="#333"/>
</g>
</svg>
